<svg width="24" height="24" viewBox="0 0 24 24" fill="none" xmlns="http://www.w3.org/2000/svg">
<path fill-rule="evenodd" clip-rule="evenodd" d="M4.5 15.5C5.4 14.5 6.7 14 8 14H16C17.3 14 18.6 14.5 19.5 15.5C20.4 16.4 21 17.7 21 19V21C21 21.6 20.6 22 20 22C19.4 22 19 21.6 19 21V19C19 18.2 18.7 17.4 18.1 16.9C17.6 16.3 16.8 16 16 16H8C7.2 16 6.4 16.3 5.9 16.9C5.3 17.4 5 18.2 5 19V21C5 21.6 4.6 22 4 22C3.4 22 3 21.6 3 21V19C3 17.7 3.5 16.4 4.5 15.5Z" fill="#2D7171"/>
<path fill-rule="evenodd" clip-rule="evenodd" d="M12 4C10.3 4 9 5.3 9 7C9 8.7 10.3 10 12 10C13.7 10 15 8.7 15 7C15 5.3 13.7 4 12 4ZM7 7C7 4.2 9.2 2 12 2C14.8 2 17 4.2 17 7C17 9.8 14.8 12 12 12C9.2 12 7 9.8 7 7Z" fill="#2D7171"/>
<path d="M12 11C14.2091 11 16 9.20914 16 7C16 4.79086 14.2091 3 12 3C9.79086 3 8 4.79086 8 7C8 9.20914 9.79086 11 12 11Z" fill="#2D7171"/>
<path d="M4.09988 22.0001C4.09988 22.0001 3.89988 16.0001 7.79988 16.0001C11.6999 16.0001 16.2999 16.0001 16.2999 16.0001C16.2999 16.0001 19.9999 15.0001 20.0999 22.0001H4.09988Z" fill="#2E7171"/>
</svg>
