<svg width="26" height="27" viewBox="0 0 26 27" fill="none" xmlns="http://www.w3.org/2000/svg">
<path d="M25 1.33398L20.8504 5.27074M25 1.33398V21.2786L20.8504 25.334M25 1.33398H16.3367M20.8504 5.27074V25.334M20.8504 5.27074H12.9879M1 5.27074L4.68857 1.33398H12.3812M1 5.27074V25.334H20.8504M1 5.27074H9.10516M16.3367 1.33398L12.9879 5.27074M16.3367 1.33398H12.3812M12.9879 5.27074V8.94663H9.10516V5.27074M12.9879 5.27074H9.10516M9.10516 5.27074L12.3812 1.33398M11.0222 12.5277V20.4723M11.0222 20.4723L7.3094 16.8439M11.0222 20.4723L14.7351 16.8439" stroke="#2D7171" stroke-width="1.5" stroke-linecap="round"/>
</svg>
