<svg width="90" height="90" viewBox="0 0 90 90" fill="none" xmlns="http://www.w3.org/2000/svg">
<path d="M52.6681 80.6044C59.2026 80.6044 64.4998 75.4974 64.4998 69.1977C64.4998 62.898 59.2026 57.791 52.6681 57.791C46.1337 57.791 40.8364 62.898 40.8364 69.1977C40.8364 75.4974 46.1337 80.6044 52.6681 80.6044Z" stroke="#2D7171" stroke-width="6" stroke-miterlimit="10"/>
<path d="M46.0951 19.4972H28.8171C27.2207 19.4972 26 18.3203 26 16.7813V10.7159C26 9.17688 27.2207 8 28.8171 8H46.189C47.7854 8 49.0061 9.17688 49.0061 10.7159V16.7813C48.9122 18.3203 47.6915 19.4972 46.0951 19.4972Z" stroke="#2D7171" stroke-width="5" stroke-miterlimit="10"/>
<path d="M30.9771 8.08984V19.4965" stroke="#2D7171" stroke-width="3" stroke-miterlimit="10"/>
<path d="M36.9863 8V19.1351" stroke="#2D7171" stroke-width="3" stroke-miterlimit="10"/>
<path d="M42.9966 8.36133V19.1343" stroke="#2D7171" stroke-width="3" stroke-miterlimit="10"/>
<path d="M46.1892 58.9686V20.041H28.9111V74.3585C28.9111 74.3585 30.5075 80.9672 37.2684 81.6009C37.2684 81.6009 41.9636 81.7819 44.1233 78.704" stroke="#2D7171" stroke-width="7" stroke-miterlimit="10"/>
<path d="M28.9111 26.6484H46.1892" stroke="#2D7171" stroke-width="4" stroke-miterlimit="10"/>
<path d="M56.6119 71.1897C56.6119 73.0908 54.8278 74.6298 52.668 74.6298C50.5083 74.6298 48.7241 73.0908 48.7241 71.1897C48.7241 69.2886 52.3863 63.6758 52.668 63.6758C52.9497 63.7663 56.6119 69.2886 56.6119 71.1897Z" stroke="#2D7171" stroke-width="4" stroke-miterlimit="10"/>
</svg>
