<svg width="80" height="58" viewBox="0 0 80 58" fill="none" xmlns="http://www.w3.org/2000/svg">
<path d="M80 7.9C80 7.2 79.9 6.4 79.7 5.7C79.3 4 78.3 2.6 77 1.6C75.7 0.6 74 0 72.1 0C67.4 0 62.6 0 57.9 0C52.3 0 46.8 0 41.2 0C40.8 0 40.4 0 40 0C33.8 0 27.6 0 21.4 0C16.9 0 12.5 0 8 0C5.7 0 3.7 0.8 2.3 2.2C0.8 3.7 0 5.7 0 8C0 14.9 0 21.8 0 28.7C0 35.7 0 42.7 0 49.6C0 52 0.8 54 2.2 55.4C3.6 56.8 5.6 57.7 7.9 57.7C18.4 57.7 28.9 57.7 39.4 57.7C50.3 57.7 61.2 57.7 72.1 57.7C74.4 57.7 76.4 56.9 77.8 55.5C79.2 54 80 52 80 49.7C80 44.2 80 38.7 80 33.2C80 24.8 80 16.3 80 7.9ZM8.1 52.2C7.7 52.2 7.4 52.2 7.1 52.1C6.7 52 6.3 51.8 6 51.5C5.7 51.2 5.6 50.9 5.4 50.4C5.3 50.2 5.3 49.9 5.3 49.6C5.3 41.3 5.3 33 5.3 24.6C5.3 19.1 5.3 13.5 5.3 8C5.3 7.6 5.4 7.2 5.5 6.9C5.6 6.7 5.7 6.5 5.8 6.3C6.1 6 6.4 5.8 6.8 5.6C7.1 5.5 7.5 5.4 8 5.4C13.6 5.4 19.3 5.4 24.9 5.4C28.5 5.4 32.1 5.4 35.7 5.4C37.1 5.4 38.6 5.4 40 5.4C47 5.4 54.1 5.4 61.1 5.4C64.6 5.4 68.1 5.4 71.6 5.4C72.2 5.4 72.6 5.5 73 5.6C73.3 5.7 73.5 5.8 73.7 5.9C74 6.1 74.2 6.4 74.3 6.8C74.4 7.2 74.5 7.7 74.5 8.3C74.5 15.8 74.5 23.4 74.5 30.9C74.5 37.1 74.5 43.2 74.5 49.4C74.5 49.9 74.4 50.4 74.3 50.7C74.2 51 74.1 51.2 74 51.4C73.8 51.7 73.5 51.9 73.1 52C72.7 52.1 72.2 52.2 71.6 52.2C50.5 52.2 29.3 52.2 8.1 52.2Z" fill="#2D7171"/>
<path d="M36.5004 39.6004C35.8004 38.1004 34.7004 36.7004 33.4004 35.5004C33.0004 35.1004 32.5004 34.8004 32.1004 34.4004C33.4004 32.6004 34.0004 30.7004 34.0004 28.8004C34.0004 26.2004 32.9004 23.8004 31.1004 22.2004C29.4004 20.7004 27.3004 19.9004 25.1004 19.9004C23.1004 19.9004 21.1004 20.6004 19.4004 21.9004C18.4004 22.7004 17.6004 23.7004 17.1004 24.9004C16.5004 26.1004 16.2004 27.4004 16.2004 28.8004C16.2004 30.6004 16.8004 32.6004 18.1004 34.4004L18.0004 34.5004C16.3004 35.7004 14.9004 37.2004 14.0004 38.9004C13.1004 40.6004 12.6004 42.5004 12.4004 44.6004C12.4004 44.7004 12.4004 44.8004 12.4004 44.8004C12.4004 45.2004 12.5004 45.6004 12.6004 46.0004C12.8004 46.5004 13.1004 47.0004 13.6004 47.3004C14.1004 47.6004 14.6004 47.8004 15.3004 47.8004C18.6004 47.8004 21.8004 47.8004 25.1004 47.8004C28.4004 47.8004 31.6004 47.8004 34.9004 47.8004C35.3004 47.8004 35.7004 47.7004 36.1004 47.6004C36.6004 47.4004 37.1004 47.1004 37.4004 46.6004C37.7004 46.1004 37.8004 45.6004 37.8004 44.9004C37.8004 44.8004 37.8004 44.8004 37.8004 44.7004C37.7004 42.8004 37.3004 41.1004 36.5004 39.6004ZM25.1004 37.7004C26.6004 37.7004 28.2004 38.3004 29.5004 39.2004C30.1004 39.7004 30.7004 40.2004 31.1004 40.8004C31.4004 41.2004 31.7004 41.7004 31.8004 42.2004C27.4004 42.2004 22.9004 42.2004 18.5004 42.2004C18.6004 41.8004 18.8004 41.3004 19.1004 40.9004C19.7004 40.0004 20.6004 39.3004 21.6004 38.7004C22.6004 38.1004 23.8004 37.8004 24.9004 37.8004C25.0004 37.7004 25.0004 37.7004 25.1004 37.7004ZM25.1004 25.3004C26.1004 25.3004 27.0004 25.7004 27.6004 26.3004C28.2004 26.9004 28.6004 27.8004 28.6004 28.8004C28.6004 29.7004 28.2004 30.6004 27.6004 31.3004C27.0004 31.9004 26.1004 32.3004 25.1004 32.3004C24.1004 32.3004 23.3004 31.9004 22.6004 31.3004C22.0004 30.7004 21.6004 29.8004 21.6004 28.8004C21.6004 27.8004 22.0004 27.0004 22.6004 26.3004C23.2004 25.7004 24.1004 25.3004 25.1004 25.3004Z" fill="#2D7171"/>
<path d="M67.6004 12.6004C67.6004 11.9004 67.3004 11.3004 66.9004 10.9004C66.5004 10.4004 65.9004 10.1004 65.3004 10.0004C65.0004 10.0004 64.6004 9.90039 64.3004 9.90039C55.9004 9.90039 47.5004 9.90039 39.0004 9.90039C31.2004 9.90039 23.5004 9.90039 15.7004 9.90039C15.4004 9.90039 15.0004 9.90039 14.6004 10.0004C13.9004 10.1004 13.4004 10.5004 13.0004 10.9004C12.6004 11.4004 12.4004 12.0004 12.4004 12.6004C12.4004 12.8004 12.4004 13.1004 12.5004 13.3004C12.6004 13.6004 12.7004 13.9004 12.9004 14.2004C13.2004 14.6004 13.5004 14.9004 14.0004 15.1004C14.4004 15.3004 15.0004 15.4004 15.6004 15.4004C19.3004 15.4004 22.9004 15.4004 26.6004 15.4004C31.1004 15.4004 35.5004 15.4004 40.0004 15.4004C48.1004 15.4004 56.3004 15.4004 64.4004 15.4004C64.7004 15.4004 65.1004 15.4004 65.5004 15.3004C66.1004 15.2004 66.7004 14.8004 67.0004 14.4004C67.3004 13.9004 67.6004 13.3004 67.6004 12.6004Z" fill="#2D7171"/>
<path d="M66.5998 32.9998C66.0998 32.5998 65.3998 32.2998 64.5998 32.2998C61.8998 32.2998 59.0998 32.2998 56.3998 32.2998C53.4998 32.2998 50.5998 32.2998 47.6998 32.2998C46.7998 32.2998 46.0998 32.5998 45.5998 33.0998C45.2998 33.2998 45.0998 33.5998 44.9998 33.9998C44.8998 34.2998 44.7998 34.6998 44.7998 35.0998C44.7998 35.4998 44.8998 35.8998 44.9998 36.1998C45.1998 36.6998 45.5998 37.0998 46.0998 37.3998C46.5998 37.6998 47.1998 37.7998 47.7998 37.7998C48.9998 37.7998 50.1998 37.7998 51.2998 37.7998C52.8998 37.7998 54.3998 37.7998 55.9998 37.7998C56.0998 37.7998 56.0998 37.7998 56.1998 37.7998C57.4998 37.7998 58.7998 37.7998 60.0998 37.7998C61.4998 37.7998 62.9998 37.7998 64.3998 37.7998C64.6998 37.7998 65.0998 37.7998 65.4998 37.6998C66.0998 37.4998 66.5998 37.1998 66.9998 36.6998C67.3998 36.1998 67.5998 35.6998 67.5998 35.0998C67.5998 34.9998 67.5998 34.8998 67.5998 34.7998C67.4998 34.0998 67.1998 33.3998 66.5998 32.9998Z" fill="#2D7171"/>
<path d="M55.9 27.7998C58.8 27.7998 61.6 27.7998 64.5 27.7998C65.4 27.7998 66.1 27.4998 66.7 26.9998C67 26.7998 67.2 26.4998 67.3 26.0998C67.4 25.7998 67.5 25.3998 67.5 24.9998C67.5 24.5998 67.4 24.1998 67.3 23.8998C67.1 23.3998 66.7 22.9998 66.2 22.6998C65.7 22.3998 65.1 22.2998 64.5 22.2998C63.3 22.2998 62.2 22.2998 61 22.2998C59.5 22.2998 57.9 22.2998 56.4 22.2998C56.3 22.2998 56.2 22.2998 56.1 22.2998C54.8 22.2998 53.5 22.2998 52.1 22.2998C50.6 22.2998 49.2 22.2998 47.7 22.2998C47.4 22.2998 47 22.2998 46.6 22.3998C46 22.5998 45.5 22.8998 45.1 23.3998C44.7 23.8998 44.5 24.3998 44.5 24.9998C44.5 25.0998 44.5 25.1998 44.5 25.2998C44.6 25.9998 44.9 26.5998 45.4 26.9998C45.9 27.3998 46.6 27.6998 47.3 27.6998C50.4 27.7998 53.2 27.7998 55.9 27.7998Z" fill="#2D7171"/>
<path d="M61.7 42.9998C61.2 42.5998 60.6 42.2998 59.9 42.2998C59.1 42.2998 58.2 42.2998 57.4 42.2998C56.2 42.2998 55 42.2998 53.9 42.2998H53.8C52.6 42.2998 51.4 42.2998 50.2 42.2998C49.5 42.2998 48.7 42.2998 48 42.2998C47.1 42.2998 46.4 42.5998 45.8 42.9998C45.5 43.1998 45.3 43.4998 45.2 43.8998C45 44.1998 45 44.5998 45 44.9998C45 44.9998 45 44.9998 45 45.0998C45 45.4998 45.1 45.8998 45.2 46.1998C45.4 46.6998 45.8 47.0998 46.3 47.3998C46.8 47.6998 47.4 47.7998 48 47.7998C48.3 47.7998 48.6 47.7998 48.9 47.7998C49.4 47.7998 49.9 47.7998 50.3 47.7998C51.8 47.7998 53.3 47.7998 54.7 47.7998C56.3 47.7998 57.8 47.7998 59.4 47.7998C59.8 47.7998 60.3 47.7998 60.7 47.6998C61.3 47.4998 61.8 47.1998 62.1 46.6998C62.4 46.1998 62.6 45.6998 62.6 45.0998C62.6 44.9998 62.6 44.8998 62.6 44.7998C62.5 43.9998 62.2 43.3998 61.7 42.9998Z" fill="#2D7171"/>
</svg>
