<svg width="24" height="24" viewBox="0 0 24 24" fill="none" xmlns="http://www.w3.org/2000/svg">
<g clip-path="url(#clip0_489_4018)">
<path d="M18.8898 4.59248C18.7563 4.13166 18.6228 4 18.1554 4C16.0855 4 14.0824 4 12.0125 4C9.94258 4 7.87269 4 5.80281 4C5.40218 4 5.20187 4.13166 5.1351 4.52665C4.80125 6.04075 4.40062 7.55486 4.06677 9.06896C4 9.20063 4 9.33229 4 9.46395C4.06677 10.0564 4.26708 10.5831 4.73448 10.9781C4.80125 11.0439 4.86802 11.1755 4.86802 11.2414C4.86802 13.348 4.86802 15.3887 4.86802 17.4953C4.86802 18.4828 5.60249 19.2727 6.67082 19.2727C10.2764 19.2727 13.882 19.2727 17.4209 19.2727C17.5544 19.2727 17.7547 19.2727 17.8883 19.2069C18.6895 19.0094 19.1569 18.3511 19.1569 17.5611C19.1569 15.5862 19.1569 13.5455 19.1569 11.5705C19.1569 11.3072 19.1569 11.1097 19.424 10.9122C19.4908 10.8464 19.5575 10.7806 19.5575 10.7147C19.8914 10.1881 20.0917 9.66144 19.9582 9.06896C19.6243 7.55486 19.2237 6.04075 18.8898 4.59248ZM14.0156 10.5172C13.0808 10.5831 12.6134 9.92476 12.6134 9.39812C12.6134 8.01567 12.6134 6.5674 12.6134 5.18495C13.4147 5.18495 14.1491 5.18495 14.9504 5.18495C14.9504 5.51411 15.0171 5.84326 15.0171 6.10658C15.0839 7.15987 15.1507 8.21317 15.2175 9.26646C15.2175 9.92476 14.6833 10.4514 14.0156 10.5172ZM11.4115 9.26646C11.4115 9.85893 11.0109 10.3197 10.41 10.4514C9.74227 10.5831 9.14134 10.3197 8.94102 9.72727C8.87425 9.59561 8.87425 9.39812 8.87425 9.20063C8.94102 7.88401 9.00779 6.50157 9.14134 5.18495C9.14134 5.18495 9.14134 5.18495 9.14134 5.11912C9.87581 5.11912 10.6771 5.11912 11.4115 5.11912C11.4115 5.18495 11.4115 5.18495 11.4115 5.25078C11.4115 6.5674 11.4115 7.94984 11.4115 9.26646ZM5.1351 9.46395C5.1351 9.39812 5.1351 9.33229 5.1351 9.26646C5.46895 7.88401 5.80281 6.5674 6.13666 5.18495V5.11912C6.73759 5.11912 7.33853 5.11912 7.93946 5.11912C7.93946 5.57994 7.87269 6.10658 7.87269 6.5674C7.80592 7.48903 7.73915 8.41066 7.73915 9.26646C7.73915 9.92476 7.20499 10.4514 6.60405 10.4514C5.80281 10.5172 5.26864 10.1223 5.1351 9.46395ZM13.4147 18.0878C12.4799 18.0878 11.5451 18.0878 10.5435 18.0878C10.5435 18.0219 10.5435 17.9561 10.5435 17.8903C10.5435 16.7712 10.5435 15.652 10.5435 14.4671C10.5435 14.0063 10.7438 13.8088 11.2112 13.8088C11.7454 13.8088 12.2796 13.8088 12.7469 13.8088C13.1476 13.8088 13.4147 14.0063 13.4147 14.4671C13.4147 15.7179 13.4147 16.9028 13.4147 18.0878ZM18.0218 11.768C18.0218 13.6771 18.0218 15.5204 18.0218 17.4295C18.0218 17.8903 17.8215 18.0878 17.3541 18.0878C16.4861 18.0878 15.6181 18.0878 14.8168 18.0878C14.7501 18.0878 14.6833 18.0878 14.6165 18.0878C14.6165 18.0219 14.6165 17.9561 14.6165 17.8903C14.6165 16.7712 14.6165 15.652 14.6165 14.5329C14.6165 13.4796 13.882 12.7555 12.8137 12.7555C12.2796 12.7555 11.7454 12.7555 11.2112 12.7555C10.2097 12.7555 9.47519 13.4796 9.47519 14.4671C9.47519 15.5862 9.47519 16.7053 9.47519 17.8903C9.47519 17.9561 9.47519 18.0219 9.47519 18.0878C9.40842 18.0878 9.40842 18.0878 9.34165 18.0878C8.47363 18.0878 7.53884 18.0878 6.67082 18.0878C6.2702 18.0878 6.06989 17.8244 6.06989 17.4953C6.06989 15.5862 6.06989 13.6113 6.06989 11.7022C6.06989 11.6364 6.06989 11.6364 6.06989 11.5705C6.93791 11.7022 7.73915 11.4389 8.34009 10.7806C8.87425 11.3072 9.47519 11.5705 10.2097 11.5705C10.9441 11.5705 11.5451 11.3072 12.0792 10.7806C12.6134 11.3072 13.2143 11.5705 13.9488 11.5705C14.6833 11.5705 15.2842 11.3072 15.8184 10.7806C16.4193 11.4389 17.2206 11.6364 18.0886 11.5705C18.0218 11.6364 18.0218 11.7022 18.0218 11.768ZM18.6895 9.92476C18.4224 10.3856 17.8215 10.6489 17.1538 10.4514C16.6196 10.3197 16.2858 9.85893 16.2858 9.33229C16.219 8.01567 16.1522 6.69906 16.0187 5.44828C16.0187 5.38244 16.0187 5.31661 16.0187 5.18495C16.6196 5.18495 17.2206 5.18495 17.8215 5.18495C17.8883 5.51411 17.9551 5.84326 18.0886 6.17241C18.3557 7.15987 18.556 8.14734 18.8231 9.1348C18.8898 9.39812 18.8231 9.66144 18.6895 9.92476Z" fill="#2D7171"/>
</g>
<defs>
<clipPath id="clip0_489_4018">
<rect width="16" height="16" fill="white" transform="translate(4 4)"/>
</clipPath>
</defs>
</svg>
