<svg width="24" height="24" viewBox="0 0 24 24" fill="none" xmlns="http://www.w3.org/2000/svg">
<g clip-path="url(#clip0_489_4023)">
<path d="M12 19.3337C12 19.3337 18 15.3337 18 10.667C18 9.07569 17.3679 7.54957 16.2426 6.42435C15.1174 5.29913 13.5913 4.66699 12 4.66699C10.4087 4.66699 8.88258 5.29913 7.75736 6.42435C6.63214 7.54957 6 9.07569 6 10.667C6 15.3337 12 19.3337 12 19.3337Z" stroke="#2D7171" stroke-width="1.4" stroke-linecap="round" stroke-linejoin="round"/>
<path d="M12 12.667C13.1046 12.667 14 11.7716 14 10.667C14 9.56242 13.1046 8.66699 12 8.66699C10.8954 8.66699 10 9.56242 10 10.667C10 11.7716 10.8954 12.667 12 12.667Z" stroke="#2D7171" stroke-width="1.4" stroke-linecap="round" stroke-linejoin="round"/>
</g>
<defs>
<clipPath id="clip0_489_4023">
<rect width="16" height="16" fill="white" transform="translate(4 4)"/>
</clipPath>
</defs>
</svg>
