<svg width="16" height="17" viewBox="0 0 16 17" fill="none" xmlns="http://www.w3.org/2000/svg">
<g clip-path="url(#clip0_489_7807)">
<path d="M6.34572 15.6787C5.11149 15.6787 3.87726 15.6801 2.64303 15.6787C1.71292 15.6773 0.969656 14.9409 0.969656 14.0135C0.968292 11.3841 0.969656 8.75337 0.969656 6.12398C0.969656 6.09807 0.969656 6.07216 0.969656 6.04488C4.8401 6.04488 8.69826 6.04488 12.5646 6.04488C12.5646 6.07352 12.5646 6.09807 12.5646 6.12262C12.5646 6.4772 12.5632 6.83179 12.5646 7.18637C12.566 7.41549 12.7255 7.60506 12.9492 7.65279C13.1688 7.69916 13.3938 7.59142 13.4824 7.38276C13.5152 7.30775 13.5288 7.22047 13.5302 7.13864C13.5329 6.04079 13.5329 4.94294 13.5315 3.84509C13.5315 3.76735 13.5274 3.69098 13.522 3.61324C13.4374 2.52221 12.6696 1.59074 11.6168 1.29207C11.3017 1.20342 10.9812 1.18706 10.658 1.19251C10.6198 1.19251 10.583 1.19251 10.5462 1.19251C10.5094 0.840653 10.3498 0.657905 10.0757 0.646995C9.9584 0.641539 9.85067 0.675634 9.75793 0.747915C9.61609 0.859746 9.56291 1.01113 9.56972 1.18842C9.5479 1.18978 9.5329 1.19251 9.5179 1.19251C8.78418 1.19251 8.0491 1.19251 7.31538 1.19387C7.25673 1.19387 7.24991 1.17069 7.24855 1.12159C7.239 0.8502 7.03171 0.646995 6.7685 0.645631C6.50256 0.644267 6.2939 0.848836 6.28162 1.12296C6.28026 1.14478 6.2789 1.1666 6.27753 1.18842C5.50153 1.18842 4.73508 1.18842 3.96863 1.18842C3.91135 0.816105 3.74906 0.640176 3.46812 0.645631C3.19127 0.651086 3.02898 0.831106 2.98534 1.19251C2.93488 1.19251 2.88715 1.19251 2.84078 1.19251C2.56938 1.18842 2.30072 1.19797 2.03478 1.2607C0.827821 1.54982 0 2.60131 0 3.8519C0 7.23002 0 10.6068 0 13.9849C0 14.0844 0.00409137 14.1854 0.0136379 14.2849C0.143198 15.6132 1.28333 16.647 2.61848 16.647C3.24991 16.647 3.88271 16.647 4.51415 16.647C5.12786 16.647 5.74156 16.647 6.35527 16.647C6.63212 16.647 6.8476 16.4397 6.85032 16.1724C6.85578 15.8901 6.63894 15.6787 6.34572 15.6787ZM0.968292 3.83281C0.969656 2.90407 1.70747 2.16626 2.63621 2.16353C2.75213 2.16353 2.86669 2.16353 2.98943 2.16353C2.98534 2.34355 3.03444 2.4963 3.17491 2.60813C3.26355 2.67904 3.36584 2.7145 3.47767 2.71314C3.62087 2.71177 3.74224 2.65586 3.83907 2.54948C3.9359 2.44174 3.96591 2.31218 3.96045 2.16762C4.73508 2.16762 5.50153 2.16762 6.27753 2.16762C6.2748 2.34901 6.32663 2.50857 6.47937 2.61904C6.57075 2.68586 6.67303 2.71859 6.78623 2.71177C6.9267 2.70496 7.04398 2.64631 7.13672 2.53857C7.22673 2.4322 7.25537 2.30673 7.24991 2.16626C8.02591 2.16626 8.79509 2.16626 9.56972 2.16626C9.56427 2.34219 9.61337 2.49357 9.75111 2.60404C9.84385 2.67768 9.94886 2.7145 10.0675 2.71041C10.3416 2.70359 10.4985 2.52494 10.5462 2.16217C10.6867 2.16217 10.8299 2.15671 10.9717 2.16353C11.8663 2.20581 12.5592 2.93135 12.5619 3.82736C12.5632 4.21876 12.5619 4.60881 12.5619 5.00022C12.5619 5.02067 12.5619 5.04113 12.5619 5.06704C8.69826 5.06704 4.83873 5.06704 0.966928 5.06704C0.966928 5.03977 0.966928 5.01522 0.966928 4.99067C0.968292 4.60472 0.968292 4.21876 0.968292 3.83281Z" fill="#2D7171"/>
<path d="M13.6599 8.51465C13.1662 8.52147 12.7284 8.70012 12.3656 9.06153C11.7301 9.69569 11.096 10.3312 10.4618 10.9654C9.70353 11.7236 8.94526 12.4833 8.18699 13.2402C8.0397 13.3875 7.94014 13.5607 7.90468 13.7652C7.8174 14.2712 7.72876 14.7772 7.64966 15.2845C7.55419 15.8928 8.09562 16.4519 8.70659 16.3674C9.19892 16.2978 9.68716 16.2037 10.1795 16.1246C10.4018 16.0891 10.5982 16.006 10.7577 15.8464C12.1665 14.4376 13.5794 13.0315 14.9828 11.6173C15.4096 11.1877 15.5706 10.6544 15.4778 10.0598C15.336 9.16109 14.59 8.52829 13.6599 8.51465ZM12.9589 12.2746C12.0124 13.2211 11.0673 14.1676 10.1195 15.114C10.0922 15.1399 10.0527 15.1618 10.0158 15.1686C9.56033 15.2504 9.10346 15.3282 8.64659 15.4059C8.6384 15.4073 8.62886 15.4073 8.60976 15.4086C8.62477 15.3159 8.6384 15.2272 8.65341 15.1399C8.71614 14.7635 8.77887 14.3871 8.8457 14.0107C8.85252 13.9739 8.87025 13.9316 8.89752 13.9044C9.85082 12.9483 10.8055 11.9937 11.7601 11.0404C11.771 11.0295 11.7833 11.0186 11.7915 11.0118C12.1965 11.4154 12.5989 11.8191 13.0066 12.2255C12.9916 12.2392 12.9753 12.2569 12.9589 12.2746ZM14.3295 10.8917C14.1331 11.114 13.9067 11.3091 13.6981 11.5123C13.3039 11.1181 12.9016 10.7144 12.5075 10.3203C12.7093 10.1116 12.9057 9.87844 13.1321 9.67933C13.4649 9.38748 13.9695 9.4243 14.2831 9.73933C14.5941 10.0516 14.6241 10.5576 14.3295 10.8917Z" fill="#2D7171"/>
<path d="M9.88338 8.68608C10.1411 8.65199 10.3293 8.40378 10.2912 8.14738C10.2543 7.89372 10.0579 7.72597 9.79473 7.72461C8.78553 7.72461 7.77632 7.72461 6.76712 7.72461C5.76882 7.72461 4.77189 7.72461 3.7736 7.72461C3.73268 7.72461 3.69177 7.72461 3.65085 7.73006C3.38492 7.7628 3.19398 8.02328 3.24035 8.28513C3.28536 8.53607 3.47902 8.69017 3.75178 8.69154C5.76064 8.69154 7.77087 8.69154 9.77973 8.69154C9.81519 8.6929 9.84929 8.69154 9.88338 8.68608Z" fill="#2D7171"/>
<path d="M8.5825 10.375C8.17881 10.375 7.77513 10.375 7.37281 10.375C6.96913 10.375 6.56545 10.375 6.16313 10.375C5.35577 10.375 4.54977 10.375 3.7424 10.375C3.59511 10.375 3.46828 10.42 3.37009 10.5291C3.23234 10.6819 3.19825 10.8591 3.27871 11.0487C3.36327 11.2451 3.52283 11.3433 3.73695 11.3433C5.24803 11.3447 6.75911 11.3433 8.27155 11.3433C8.38066 11.3433 8.48976 11.3447 8.59886 11.3433C8.90026 11.3378 9.11574 11.0855 9.07619 10.7869C9.04209 10.5468 8.83889 10.375 8.5825 10.375Z" fill="#2D7171"/>
<path d="M6.52997 13.0274C5.59168 13.026 4.65339 13.026 3.7151 13.0274C3.61009 13.0274 3.51462 13.0615 3.43007 13.1242C3.26505 13.2483 3.19822 13.4624 3.26232 13.6602C3.32642 13.8593 3.50644 13.993 3.72055 13.993C4.18697 13.9943 4.65202 13.993 5.11844 13.993C5.35301 13.993 5.58895 13.993 5.82352 13.993C6.05809 13.993 6.29403 13.993 6.5286 13.9916C6.80136 13.9902 7.01411 13.7747 7.01275 13.5061C7.01275 13.2415 6.8 13.0274 6.52997 13.0274Z" fill="#2D7171"/>
</g>
<defs>
<clipPath id="clip0_489_7807">
<rect width="16" height="16" fill="white" transform="translate(0 0.645508)"/>
</clipPath>
</defs>
</svg>
