<svg width="32" height="32" viewBox="0 0 32 32" fill="none" xmlns="http://www.w3.org/2000/svg">
<path d="M21.6569 5.00989C23.1571 6.51018 24 8.54502 24 10.6667C24 20.0001 28 22.6667 28 22.6667H4C4 22.6667 8 20.0001 8 10.6667C8 8.54502 8.84285 6.51018 10.3431 5.00989C11.8434 3.5096 13.8783 2.66675 16 2.66675C18.1217 2.66675 20.1566 3.5096 21.6569 5.00989Z" stroke="#AEB3BC" stroke-width="2" stroke-linecap="round" stroke-linejoin="round"/>
<path d="M18.3067 28C18.0723 28.4041 17.7358 28.7395 17.331 28.9727C16.9262 29.2059 16.4672 29.3286 16 29.3286C15.5329 29.3286 15.0739 29.2059 14.6691 28.9727C14.2642 28.7395 13.9278 28.4041 13.6934 28" stroke="#AEB3BC" stroke-width="2" stroke-linecap="round" stroke-linejoin="round"/>
</svg>
