<svg width="16" height="17" viewBox="0 0 16 17" fill="none" xmlns="http://www.w3.org/2000/svg">
<g clip-path="url(#clip0_1_2078)">
<path d="M10.0334 3.80839C10.6845 3.93543 11.283 4.2539 11.7521 4.72301C12.2212 5.19213 12.5397 5.79057 12.6667 6.44172M10.0334 1.14172C11.3862 1.29201 12.6478 1.89784 13.6109 2.85973C14.574 3.82162 15.1814 5.0824 15.3334 6.43506M14.6667 11.7551V13.7551C14.6675 13.9407 14.6294 14.1245 14.555 14.2946C14.4807 14.4647 14.3716 14.6174 14.2348 14.743C14.0979 14.8685 13.9364 14.964 13.7605 15.0235C13.5847 15.083 13.3983 15.1051 13.2134 15.0884C11.1619 14.8655 9.19137 14.1645 7.46004 13.0417C5.84926 12.0182 4.48359 10.6525 3.46004 9.04172C2.33336 7.30253 1.6322 5.32239 1.41337 3.26172C1.39671 3.07737 1.41862 2.89156 1.4777 2.71614C1.53679 2.54072 1.63175 2.37952 1.75655 2.2428C1.88134 2.10609 2.03324 1.99686 2.20256 1.92207C2.37189 1.84728 2.55493 1.80856 2.74004 1.80839H4.74004C5.06357 1.80521 5.37723 1.91978 5.62254 2.13075C5.86786 2.34171 6.02809 2.63469 6.07337 2.95506C6.15779 3.5951 6.31434 4.22354 6.54004 4.82839C6.62973 5.06701 6.64915 5.32633 6.59597 5.57564C6.5428 5.82495 6.41928 6.0538 6.24004 6.23506L5.39337 7.08172C6.34241 8.75075 7.72434 10.1327 9.39337 11.0817L10.24 10.2351C10.4213 10.0558 10.6501 9.93229 10.8994 9.87912C11.1488 9.82595 11.4081 9.84536 11.6467 9.93506C12.2516 10.1608 12.88 10.3173 13.52 10.4017C13.8439 10.4474 14.1396 10.6105 14.3511 10.8601C14.5625 11.1096 14.6748 11.4281 14.6667 11.7551Z" stroke="#2D7171" stroke-width="1.4" stroke-linecap="round" stroke-linejoin="round"/>
</g>
<defs>
<clipPath id="clip0_1_2078">
<rect width="16" height="16" fill="white" transform="translate(0 0.475037)"/>
</clipPath>
</defs>
</svg>
