<svg width="40" height="38" viewBox="0 0 40 38" fill="none" xmlns="http://www.w3.org/2000/svg">
<path d="M24.3329 3.95835L3.49957 22.6417C2.16624 23.75 1.83291 25.3334 2.66624 26.125L11.1662 34.675C11.9996 35.4667 13.6662 35.15 14.8329 34.0417L35.6662 15.3584C36.9996 14.25 37.3329 12.6667 36.4996 11.875L27.9996 3.32502C27.1662 2.53335 25.4996 2.85002 24.3329 3.95835Z" stroke="#7B8493" stroke-width="2" stroke-linecap="round" stroke-linejoin="round"/>
<path d="M21.5007 23.1167L18.1673 19.4751L15.334 16.4667C15.334 16.4667 18.5007 12.0334 20.5007 14.2501C22.5007 16.4667 18.1673 19.3167 18.1673 19.3167" stroke="#7B8493" stroke-linecap="round" stroke-linejoin="round"/>
<path d="M14.167 19.4751L21.667 12.3501" stroke="#7B8493" stroke-width="0.5" stroke-linecap="round" stroke-linejoin="round"/>
<path d="M15 20.2668L22.5 13.1418" stroke="#7B8493" stroke-width="0.5" stroke-linecap="round" stroke-linejoin="round"/>
<path d="M5.16634 26.9167C6.17886 26.9167 6.99967 26.1369 6.99967 25.175C6.99967 24.2131 6.17886 23.4333 5.16634 23.4333C4.15382 23.4333 3.33301 24.2131 3.33301 25.175C3.33301 26.1369 4.15382 26.9167 5.16634 26.9167Z" fill="#7B8493"/>
<path d="M26.3333 6.96673C27.3459 6.96673 28.1667 6.18696 28.1667 5.22506C28.1667 4.26317 27.3459 3.4834 26.3333 3.4834C25.3208 3.4834 24.5 4.26317 24.5 5.22506C24.5 6.18696 25.3208 6.96673 26.3333 6.96673Z" fill="#7B8493"/>
<path d="M12.5003 34.1999C13.5128 34.1999 14.3337 33.4201 14.3337 32.4582C14.3337 31.4963 13.5128 30.7166 12.5003 30.7166C11.4878 30.7166 10.667 31.4963 10.667 32.4582C10.667 33.4201 11.4878 34.1999 12.5003 34.1999Z" fill="#7B8493"/>
<path d="M34.3333 14.8832C35.3459 14.8832 36.1667 14.1035 36.1667 13.1416C36.1667 12.1797 35.3459 11.3999 34.3333 11.3999C33.3208 11.3999 32.5 12.1797 32.5 13.1416C32.5 14.1035 33.3208 14.8832 34.3333 14.8832Z" fill="#7B8493"/>
</svg>
