<svg width="20" height="21" viewBox="0 0 20 21" fill="none"
    xmlns="http://www.w3.org/2000/svg">
    <path d="M18.1 13.5382C18.6951 12.3601 19.0034 11.0581 19 9.73819V9.23819C18.885 7.15384 18.0052 5.18514 16.5291 3.70905C15.053 2.23295 13.0843 1.35318 11 1.23819H10.5C9.18013 1.23475 7.87812 1.54312 6.7 2.13819C5.28825 2.84376 4.10083 3.92844 3.27072 5.27074C2.44061 6.61304 2.00061 8.15995 2 9.73819C1.99656 11.0581 2.30493 12.3601 2.9 13.5382L1 19.2382L6.7 17.3382C7.87812 17.9333 9.18013 18.2416 10.5 18.2382C12.0782 18.2376 13.6251 17.7976 14.9674 16.9675C16.3098 16.1374 17.3944 14.9499 18.1 13.5382Z" stroke="#2D7171" stroke-width="2" stroke-linecap="round" stroke-linejoin="round"/>
</svg>
