<svg width="90" height="90" viewBox="0 0 90 90" fill="none" xmlns="http://www.w3.org/2000/svg">
<path d="M40.3289 43.6801H18.9854C17.0781 43.6801 15.5332 42.1352 15.5332 40.2279V25.4522C15.5332 23.5449 17.0781 22 18.9854 22H40.3376C42.2449 22 43.7898 23.5449 43.7898 25.4522V40.2279C43.7812 42.1352 42.2363 43.6801 40.3289 43.6801Z" fill="#2E7171"/>
<path d="M42.8677 45.691H23.0173C23.0173 45.691 9.4672 46.744 8 61.6231L83 61.0535C83 61.0535 82.3959 48.4528 70.1404 49.6697C70.1404 49.6697 67.8792 40.901 67.6375 40.0207C67.3872 39.1404 67.5685 35.8176 67.5771 34.7129C67.5857 33.6082 66.5414 31.7871 64.7549 31.7871C64.7549 31.7871 56.8061 31.7871 55.2353 31.7871C53.6646 31.7871 50.2814 40.1588 54.9505 40.2451C59.6197 40.3314 60.2152 40.3055 60.4137 40.3832C60.6208 40.4609 62.6835 45.5357 62.7698 46.183C62.7698 46.183 64.3492 54.6669 58.3941 54.9344L43.0921 55.1502L42.8677 45.691Z" fill="#2E7171"/>
<path d="M71.6762 68.7088C76.2759 68.7088 80.0047 65.5364 80.0047 61.6231C80.0047 57.7097 76.2759 54.5374 71.6762 54.5374C67.0765 54.5374 63.3477 57.7097 63.3477 61.6231C63.3477 65.5364 67.0765 68.7088 71.6762 68.7088Z" stroke="#2E7171" stroke-width="4" stroke-miterlimit="10"/>
<path d="M22.3617 68.7088C26.9615 68.7088 30.6903 65.5364 30.6903 61.6231C30.6903 57.7097 26.9615 54.5374 22.3617 54.5374C17.762 54.5374 14.0332 57.7097 14.0332 61.6231C14.0332 65.5364 17.762 68.7088 22.3617 68.7088Z" stroke="#2E7171" stroke-width="4" stroke-miterlimit="10"/>
</svg>
