<svg width="16" height="17" viewBox="0 0 16 17" fill="none" xmlns="http://www.w3.org/2000/svg">
<path d="M7.3335 3.16669H2.66683C2.31321 3.16669 1.97407 3.30716 1.72402 3.55721C1.47397 3.80726 1.3335 4.1464 1.3335 4.50002V13.8334C1.3335 14.187 1.47397 14.5261 1.72402 14.7762C1.97407 15.0262 2.31321 15.1667 2.66683 15.1667H12.0002C12.3538 15.1667 12.6929 15.0262 12.943 14.7762C13.193 14.5261 13.3335 14.187 13.3335 13.8334V9.16669" stroke="#2D7171" stroke-width="1.4" stroke-linecap="round" stroke-linejoin="round"/>
<path d="M13.3335 1.75244C12.9584 1.75244 12.5987 1.90144 12.3335 2.16666L6.00016 8.49999L5.3335 11.1667L8.00016 10.5L14.3335 4.16666C14.5987 3.90144 14.7477 3.54173 14.7477 3.16665C14.7477 2.79158 14.5987 2.43187 14.3335 2.16666C14.0683 1.90144 13.7086 1.75244 13.3335 1.75244Z" stroke="#2D7171" stroke-width="1.4" stroke-linecap="round" stroke-linejoin="round"/>
</svg>
