<svg width="94" height="102" viewBox="0 0 94 102" fill="none" xmlns="http://www.w3.org/2000/svg">
<path d="M33.9783 89.3214C33.9783 92.0534 34.8404 94.5865 36.3125 96.6687C36.5512 97.0002 36.8032 97.3185 37.0684 97.6235C37.2674 97.849 37.4796 98.0744 37.6918 98.2866C39.9861 100.581 43.1558 102 46.657 102C53.6595 102 59.349 96.3238 59.349 89.3081H46.657H33.9783V89.3214Z" fill="#7B8493"/>
<path d="M70.6098 35.3176C73.0501 33.3547 71.6973 27.6255 67.586 22.5062C63.4747 17.387 58.1698 14.8274 55.7296 16.7769C53.2893 18.7397 54.6421 24.469 58.7534 29.5883C62.8647 34.7208 68.1696 37.2804 70.6098 35.3176Z" fill="#D0D4D9"/>
<path d="M86.63 75.9795C83.5531 74.4145 81.7097 71.7223 80.158 68.6322L78.5135 63.0222C76.0201 50.264 76.1926 38.0627 76.1926 38.0627C76.1926 31.1398 73.8053 24.7739 69.8001 19.7342C68.0761 17.5592 66.0469 15.6362 63.7923 14.0182C61.1797 12.1615 58.262 10.7026 55.1188 9.77428C55.1719 9.37641 55.2117 8.96528 55.2117 8.54089C55.2117 3.81953 51.3921 0 46.6708 0C42.4003 0 38.8593 3.14315 38.236 7.24119C38.2227 7.36055 38.1962 7.49317 38.1829 7.61253C38.1829 7.6258 38.1829 7.65232 38.1697 7.66558C38.1431 7.95735 38.1299 8.24912 38.1299 8.54089C38.1299 8.95202 38.1564 9.36315 38.2227 9.77428C30.902 11.9493 24.7748 16.8961 21.0481 23.3814C18.5681 27.7049 17.149 32.718 17.149 38.0494C17.149 38.0494 17.3214 51.2454 14.5098 64.5341L13.2764 68.725C11.7115 71.8151 9.88128 74.5073 6.80443 76.0723C-2.46588 80.7937 -1.67015 89.2682 5.61083 89.308H33.9788H46.6708H59.3628H87.797C88.0225 89.308 88.2347 89.255 88.4071 89.1754C95.1311 88.698 95.6483 80.5682 86.63 75.9795ZM50.5036 8.79288C49.2437 8.63373 47.9705 8.54089 46.6708 8.54089C45.3711 8.54089 44.0979 8.62047 42.838 8.79288C42.838 8.7133 42.8247 8.63373 42.8247 8.54089C42.8247 8.14303 42.891 7.75842 42.9971 7.40034C43.4878 5.83539 44.9467 4.69484 46.6708 4.69484C48.7927 4.69484 50.5168 6.41893 50.5168 8.54089C50.5168 8.62047 50.5036 8.70004 50.5036 8.79288ZM58.7527 29.6014C54.6414 24.4821 53.2886 18.7396 55.7289 16.79C58.1692 14.8272 63.4741 17.4001 67.5854 22.5193C71.6967 27.6385 73.0494 33.3811 70.6091 35.3306C68.1689 37.2802 62.864 34.7206 58.7527 29.6014Z" fill="#AEB3BC"/>
</svg>
