<svg width="103" height="81" viewBox="0 0 103 81" fill="none" xmlns="http://www.w3.org/2000/svg">
<path d="M92.2215 13.8202V41.9571C92.2215 42.8337 91.9175 43.6158 91.3162 44.2901C90.7081 44.9711 89.9649 45.3621 89.0866 45.47L31.6042 52.1722C32.0839 54.3702 32.3203 55.6513 32.3203 56.0222C32.3203 56.6088 31.8812 57.782 30.9961 59.5418H81.6547C82.6073 59.5418 83.4316 59.8924 84.1342 60.5869C84.8301 61.2814 85.1814 62.1108 85.1814 63.0615C85.1814 64.0122 84.8301 64.8415 84.1342 65.536C83.4383 66.2305 82.6073 66.5811 81.6547 66.5811H25.2668C24.3141 66.5811 23.4831 66.2305 22.7872 65.536C22.0913 64.8415 21.74 64.0189 21.74 63.0615C21.74 62.6569 21.8886 62.0838 22.1792 61.3286C22.4697 60.5802 22.767 59.9194 23.0575 59.353C23.348 58.7867 23.7466 58.0517 24.2398 57.1549C24.733 56.2582 25.0168 55.7188 25.0911 55.5367L15.3553 10.3073H4.12639C3.17375 10.3073 2.34273 9.95673 1.64683 9.26224C0.950936 8.56775 0.599609 7.73841 0.599609 6.7877C0.599609 5.837 0.950936 5.00766 1.64683 4.31317C2.34273 3.61868 3.167 3.26807 4.12639 3.26807H18.22C18.8078 3.26807 19.328 3.38943 19.7874 3.62542C20.2469 3.86142 20.6049 4.1446 20.8617 4.47499C21.1184 4.80538 21.3549 5.25713 21.5779 5.82351C21.8008 6.38989 21.9427 6.86862 22.017 7.25294C22.0913 7.63727 22.1927 8.17668 22.321 8.87117C22.4494 9.56566 22.5305 10.0444 22.571 10.3006H88.7015C89.6541 10.3006 90.4784 10.6512 91.181 11.3457C91.8702 12.0469 92.2215 12.8695 92.2215 13.8202ZM33.7459 68.6646C35.1377 70.0603 35.8404 71.7055 35.8404 73.6069C35.8404 75.5083 35.1445 77.1602 33.7459 78.5492C32.3474 79.9382 30.6988 80.6394 28.7936 80.6394C26.8815 80.6394 25.233 79.9449 23.8412 78.5492C22.4427 77.1535 21.7468 75.5083 21.7468 73.6069C21.7468 71.7055 22.4427 70.0535 23.8412 68.6646C25.233 67.2756 26.8883 66.5744 28.7936 66.5744C30.6988 66.5744 32.3541 67.2689 33.7459 68.6646ZM83.0803 68.6646C84.4721 70.0603 85.1747 71.7055 85.1747 73.6069C85.1747 75.5083 84.4788 77.1602 83.0803 78.5492C81.6817 79.9382 80.0332 80.6394 78.1279 80.6394C76.2159 80.6394 74.5673 79.9449 73.1688 78.5492C71.7702 77.1535 71.0743 75.5083 71.0743 73.6069C71.0743 71.7055 71.7702 70.0535 73.1688 68.6646C74.5606 67.2756 76.2159 66.5744 78.1279 66.5744C80.0332 66.5744 81.6885 67.2689 83.0803 68.6646Z" fill="#AEB3BC"/>
<path d="M91.4713 22.4103C97.6169 22.4103 102.599 17.4384 102.599 11.3053C102.599 5.1721 97.6169 0.200195 91.4713 0.200195C85.3257 0.200195 80.3438 5.1721 80.3438 11.3053C80.3438 17.4384 85.3257 22.4103 91.4713 22.4103Z" fill="#D0D4D9"/>
<path d="M91.3839 5.9585C92.323 5.9585 93.0527 6.28888 93.5796 6.9564C94.208 7.74529 94.5255 9.06009 94.5255 10.8873C94.5255 12.7146 94.208 14.0226 93.5729 14.825C93.0527 15.4858 92.3162 15.8094 91.3839 15.8094C90.4447 15.8094 89.6813 15.4453 89.107 14.7239C88.5327 14.0024 88.2422 12.7146 88.2422 10.8604C88.2422 9.03987 88.5597 7.7318 89.1948 6.93617C89.7218 6.28888 90.4515 5.9585 91.3839 5.9585ZM91.3839 7.49581C91.1609 7.49581 90.9582 7.56998 90.7826 7.71157C90.6069 7.85317 90.4718 8.10939 90.3704 8.48023C90.242 8.95895 90.1812 9.76132 90.1812 10.8941C90.1812 12.0268 90.2353 12.8022 90.3502 13.227C90.465 13.6518 90.6069 13.935 90.7826 14.0698C90.9582 14.2114 91.1541 14.2789 91.3771 14.2789C91.6001 14.2789 91.8027 14.2047 91.9784 14.0631C92.1541 13.9215 92.2892 13.6653 92.3905 13.2944C92.5189 12.8225 92.5797 12.0201 92.5797 10.8873C92.5797 9.75458 92.5257 8.97918 92.4108 8.5544C92.296 8.12961 92.1541 7.84642 91.9784 7.70483C91.8095 7.56998 91.6136 7.49581 91.3839 7.49581Z" fill="#7B8493"/>
<rect x="36.2656" y="44.3403" width="6.52666" height="29.3956" rx="3.26333" transform="rotate(169.009 36.2656 44.3403)" fill="#D0D4D9"/>
</svg>
