<svg width="16" height="16" viewBox="0 0 16 16" fill="none" xmlns="http://www.w3.org/2000/svg">
<g clip-path="url(#clip0_2808_27362)">
<path d="M11.96 11.9599C10.8204 12.8285 9.43273 13.3098 7.99999 13.3332C3.33332 13.3332 0.666656 7.99985 0.666656 7.99985C1.49592 6.45445 2.64608 5.10426 4.03999 4.03985M6.59999 2.82652C7.05888 2.71911 7.5287 2.66541 7.99999 2.66652C12.6667 2.66652 15.3333 7.99985 15.3333 7.99985C14.9286 8.75693 14.446 9.46968 13.8933 10.1265M9.41332 9.41319C9.23022 9.60969 9.00942 9.76729 8.76409 9.8766C8.51876 9.98591 8.25392 10.0447 7.98538 10.0494C7.71684 10.0542 7.4501 10.0048 7.20106 9.90418C6.95203 9.80359 6.7258 9.65387 6.53589 9.46396C6.34597 9.27404 6.19625 9.04782 6.09566 8.79878C5.99507 8.54975 5.94567 8.283 5.95041 8.01446C5.95515 7.74592 6.01393 7.48108 6.12324 7.23575C6.23255 6.99042 6.39016 6.76962 6.58666 6.58652" stroke="#AEB3BC" stroke-width="1.4" stroke-linecap="round" stroke-linejoin="round"/>
<path d="M0.666656 0.666504L15.3333 15.3332" stroke="#AEB3BC" stroke-width="1.4" stroke-linecap="round" stroke-linejoin="round"/>
</g>
<defs>
<clipPath id="clip0_2808_27362">
<rect width="16" height="16" fill="white"/>
</clipPath>
</defs>
</svg>
