<svg width="90" height="90" viewBox="0 0 90 90" fill="none" xmlns="http://www.w3.org/2000/svg">
<path d="M82.2405 48.02H32.9605C31.5005 48.02 30.3105 46.83 30.3105 45.37V44.65C30.3105 43.19 31.5005 42 32.9605 42H82.2505C83.7105 42 84.9006 43.19 84.9006 44.65V45.37C84.8906 46.84 83.7105 48.02 82.2405 48.02Z" fill="#2D7171"/>
<path d="M82.2405 76.02H32.9605C31.5005 76.02 30.3105 74.83 30.3105 73.37V72.65C30.3105 71.19 31.5005 70 32.9605 70H82.2505C83.7105 70 84.9006 71.19 84.9006 72.65V73.37C84.8906 74.84 83.7105 76.02 82.2405 76.02Z" fill="#2D7171"/>
<path d="M82.2505 20.02H32.9605C31.5005 20.02 30.3105 18.83 30.3105 17.37V16.65C30.3105 15.19 31.5005 14 32.9605 14H82.2505C83.7105 14 84.9005 15.19 84.9005 16.65V17.37C84.8905 18.84 83.7105 20.02 82.2505 20.02Z" fill="#2D7171"/>
<path d="M20.6592 37.5466C19.0992 36.5466 16.9992 36.9566 15.9592 38.4666L9.40919 48.0566C8.37919 49.5666 8.79919 51.6066 10.3592 52.6166C11.9192 53.6166 14.0192 53.2066 15.0592 51.6966L21.6092 42.1066C22.6492 40.5966 22.2192 38.5566 20.6592 37.5466Z" fill="#2D7171"/>
<path d="M6.52917 43.6366C5.08917 44.7966 4.89917 46.8766 6.09917 48.2666L9.37917 52.0766C10.5792 53.4666 12.7192 53.6566 14.1492 52.4966C15.5892 51.3366 15.7792 49.2566 14.5792 47.8666L11.2992 44.0466C10.0992 42.6566 7.95917 42.4666 6.52917 43.6366Z" fill="#2D7171"/>
<path d="M20.6592 9.54662C19.0992 8.54662 16.9992 8.95662 15.9592 10.4666L9.40919 20.0566C8.37919 21.5666 8.79919 23.6066 10.3592 24.6166C11.9192 25.6166 14.0192 25.2066 15.0592 23.6966L21.6092 14.1066C22.6492 12.5966 22.2192 10.5566 20.6592 9.54662Z" fill="#2D7171"/>
<path d="M6.52917 15.6366C5.08917 16.7966 4.89917 18.8766 6.09917 20.2666L9.37917 24.0866C10.5792 25.4766 12.7192 25.6666 14.1492 24.5066C15.5892 23.3466 15.7792 21.2666 14.5792 19.8766L11.2992 16.0566C10.0992 14.6566 7.95917 14.4666 6.52917 15.6366Z" fill="#2D7171"/>
<path fill-rule="evenodd" clip-rule="evenodd" d="M13.25 75.9999C15.3191 75.9999 16.5 74.4844 16.5 73.2099C16.5 71.9354 15.3191 70.4199 13.25 70.4199C11.1809 70.4199 10 71.9354 10 73.2099C10 74.4844 11.1809 75.9999 13.25 75.9999ZM21.5 73.2099C21.5 77.5122 17.8063 80.9999 13.25 80.9999C8.69365 80.9999 5 77.5122 5 73.2099C5 68.9076 8.69365 65.4199 13.25 65.4199C17.8063 65.4199 21.5 68.9076 21.5 73.2099Z" fill="#2D7171"/>
</svg>
