<svg width="220" height="36" viewBox="0 0 220 36" fill="none" xmlns="http://www.w3.org/2000/svg">
<path d="M22.635 12.39L18 3L13.365 12.39L3 13.905L10.5 21.21L8.73 31.53L18 26.655L27.27 31.53L25.5 21.21L33 13.905L22.635 12.39Z" fill="#D0D4D9"/>
<path d="M68.635 12.39L64 3L59.365 12.39L49 13.905L56.5 21.21L54.73 31.53L64 26.655L73.27 31.53L71.5 21.21L79 13.905L68.635 12.39Z" fill="#D0D4D9"/>
<path d="M114.635 12.39L110 3L105.365 12.39L95 13.905L102.5 21.21L100.73 31.53L110 26.655L119.27 31.53L117.5 21.21L125 13.905L114.635 12.39Z" fill="#D0D4D9"/>
<path d="M160.635 12.39L156 3L151.365 12.39L141 13.905L148.5 21.21L146.73 31.53L156 26.655L165.27 31.53L163.5 21.21L171 13.905L160.635 12.39Z" fill="#D0D4D9"/>
<path d="M206.635 12.39L202 3L197.365 12.39L187 13.905L194.5 21.21L192.73 31.53L202 26.655L211.27 31.53L209.5 21.21L217 13.905L206.635 12.39Z" fill="#D0D4D9"/>
</svg>
